<?xml version="1.0" standalone="no"?>
<!DOCTYPE svg PUBLIC "-//W3C//DTD SVG 20010904//EN"
 "http://www.w3.org/TR/2001/REC-SVG-20010904/DTD/svg10.dtd">
<svg version="1.0" xmlns="http://www.w3.org/2000/svg"
 width="576.000000pt" height="433.000000pt" viewBox="0 0 576.000000 433.000000"
 preserveAspectRatio="xMidYMid meet">

<g transform="translate(0.000000,433.000000) scale(0.100000,-0.100000)"
fill="#000000" stroke="none">
<path d="M1345 4160 c-212 -26 -407 -133 -577 -315 -145 -155 -199 -247 -333
-565 -131 -312 -185 -513 -207 -772 -40 -493 114 -836 450 -1000 103 -50 109
-52 221 -60 285 -19 509 23 746 138 155 75 152 73 164 174 6 47 18 105 26 129
17 47 11 61 -28 61 -10 0 -51 11 -91 24 -255 86 -406 287 -406 540 1 156 61
288 184 403 121 112 278 173 447 173 157 0 297 -47 415 -140 l65 -51 79 30
c44 17 86 31 94 31 29 0 27 22 -14 144 -87 262 -250 539 -421 716 -243 251
-540 375 -814 340z"/>
<path d="M1843 2818 c-199 -73 -276 -293 -177 -505 52 -110 214 -222 214 -147
0 34 82 200 147 298 37 56 103 137 145 180 43 43 78 82 78 86 0 3 -13 19 -28
33 -45 43 -125 69 -227 74 -76 3 -100 0 -152 -19z"/>
<path d="M2835 2694 c-227 -58 -341 -119 -470 -248 -87 -87 -137 -163 -182
-272 -53 -129 -66 -208 -60 -359 5 -144 23 -217 83 -339 45 -91 90 -150 171
-227 85 -80 144 -119 240 -159 466 -194 987 91 1108 607 24 103 22 269 -5 379
-71 287 -276 506 -555 594 -51 16 -103 23 -190 25 -66 2 -129 2 -140 -1z"/>
<path d="M4440 2494 c-135 -17 -444 -106 -478 -139 -12 -11 -11 -25 2 -86 9
-41 18 -118 20 -173 3 -54 6 -99 8 -101 2 -1 29 -14 60 -28 182 -82 330 -240
386 -412 97 -296 -65 -571 -373 -631 -124 -24 -298 1 -416 61 -28 14 -55 25
-61 25 -5 0 -32 -24 -59 -54 -56 -62 -140 -121 -208 -146 -25 -10 -47 -23 -49
-29 -6 -17 98 -151 193 -250 331 -345 712 -436 1066 -254 110 56 229 158 419
360 134 142 252 290 337 423 126 197 197 429 196 645 -1 384 -229 672 -607
766 -79 20 -346 34 -436 23z"/>
<path d="M3999 1608 c-34 -117 -107 -248 -189 -343 -22 -25 -40 -49 -40 -53 1
-33 86 -71 158 -72 98 0 199 74 237 173 25 67 17 184 -18 253 -27 53 -87 114
-112 114 -9 0 -22 -27 -36 -72z"/>
</g>
</svg>
